<?xml version="1.0" standalone="no"?>
<!DOCTYPE svg PUBLIC "-//W3C//DTD SVG 20010904//EN"
 "http://www.w3.org/TR/2001/REC-SVG-20010904/DTD/svg10.dtd">
<svg version="1.0" xmlns="http://www.w3.org/2000/svg"
 width="512.000000pt" height="512.000000pt" viewBox="0 0 512.000000 512.000000"
 preserveAspectRatio="xMidYMid meet">
<metadata>
Created by potrace 1.14, written by Peter Selinger 2001-2017
</metadata>
<g transform="translate(0.000000,512.000000) scale(0.100000,-0.100000)"
fill="#000000" stroke="none">
<path d="M2951 5107 c-13 -6 -33 -24 -44 -39 -21 -27 -21 -40 -21 -693 -1
-435 -4 -665 -11 -666 -5 -1 -631 -2 -1390 -3 l-1380 -1 -36 -23 c-75 -46 -70
62 -67 -1421 l3 -1330 21 -28 c48 -65 8 -62 873 -62 431 -1 786 -3 788 -5 3
-3 6 -276 4 -356 l-1 -26 -307 1 c-170 0 -319 -1 -331 -4 -49 -8 -57 -42 -56
-231 l1 -173 27 -24 27 -23 2004 2 2005 3 27 28 28 27 0 2500 0 2500 -28 27
-27 28 -1043 2 c-815 2 -1047 0 -1066 -10z m-66 -4454 c-1 -104 -3 -190 -4
-193 0 -3 -128 -6 -283 -5 l-283 0 -3 193 -2 192 288 0 289 0 -2 -187z"/>
</g>
</svg>
